<?xml version="1.0" standalone="no"?>
<!DOCTYPE svg PUBLIC "-//W3C//DTD SVG 20010904//EN"
 "http://www.w3.org/TR/2001/REC-SVG-20010904/DTD/svg10.dtd">
<svg version="1.0" xmlns="http://www.w3.org/2000/svg"
 width="100.000000pt" height="100.000000pt" viewBox="0 0 100.000000 100.000000"
 preserveAspectRatio="xMidYMid meet">

<g transform="translate(0.000000,100.000000) scale(0.100000,-0.100000)"
fill="#000000" stroke="none">
<path d="M226 818 c-30 -30 -76 -129 -76 -163 0 -21 62 -135 107 -196 86 -117
254 -255 359 -295 39 -15 46 -15 91 0 96 32 151 83 139 129 -8 33 -119 137
-146 137 -12 0 -46 -23 -79 -55 l-58 -55 -59 39 c-69 45 -110 87 -153 155
l-31 49 55 58 c33 35 55 66 55 80 0 30 -119 149 -149 149 -13 0 -38 -15 -55
-32z m126 -46 c60 -61 64 -67 48 -92 -8 -12 -17 -8 -52 25 l-43 40 40 -43 39
-42 -44 -45 -43 -44 24 -48 c31 -61 140 -171 202 -202 l47 -24 59 57 c33 31
65 56 72 56 14 0 129 -112 129 -126 0 -5 -5 -16 -10 -24 -8 -12 -17 -8 -52 25
l-43 40 39 -42 c48 -51 42 -62 -46 -92 l-61 -21 -55 25 c-157 72 -335 250
-407 407 l-25 55 21 61 c20 58 63 112 91 112 6 0 37 -26 70 -58z"/>
<path d="M270 776 c0 -2 8 -10 18 -17 15 -13 16 -12 3 4 -13 16 -21 21 -21 13z"/>
<path d="M690 356 c0 -2 8 -10 18 -17 15 -13 16 -12 3 4 -13 16 -21 21 -21 13z"/>
</g>
</svg>
